<svg width="118" height="24" viewBox="0 0 118 24" fill="none" xmlns="http://www.w3.org/2000/svg">
<rect width="24" height="24" rx="6" fill="black"/>
<rect x="5.25" y="5.25" width="2.25" height="13.5" rx="1.125" fill="white"/>
<path d="M36.692 18.238C36.0913 18.238 35.5473 18.1813 35.06 18.068C34.5727 17.9547 34.1533 17.7903 33.802 17.575C33.4507 17.3597 33.1673 17.1047 32.952 16.81C32.7367 16.504 32.595 16.164 32.527 15.79L34.397 15.025C34.4423 15.2743 34.567 15.5067 34.771 15.722C34.975 15.9373 35.247 16.113 35.587 16.249C35.9383 16.3737 36.3577 16.436 36.845 16.436C37.3663 16.436 37.7687 16.3623 38.052 16.215C38.3353 16.0563 38.477 15.8353 38.477 15.552C38.477 15.3367 38.3977 15.1667 38.239 15.042C38.0803 14.9173 37.848 14.8097 37.542 14.719C37.236 14.6283 36.8677 14.5433 36.437 14.464C36.0177 14.362 35.587 14.2543 35.145 14.141C34.7143 14.0277 34.312 13.869 33.938 13.665C33.5753 13.461 33.275 13.1947 33.037 12.866C32.8103 12.526 32.697 12.0953 32.697 11.574C32.697 11.03 32.8443 10.554 33.139 10.146C33.4337 9.738 33.8643 9.42067 34.431 9.194C34.9977 8.956 35.689 8.837 36.505 8.837C37.2417 8.837 37.8877 8.939 38.443 9.143C38.9983 9.33567 39.4517 9.619 39.803 9.993C40.1657 10.3557 40.4093 10.792 40.534 11.302L38.545 11.965C38.4997 11.693 38.3863 11.455 38.205 11.251C38.035 11.047 37.8027 10.894 37.508 10.792C37.2247 10.69 36.8903 10.639 36.505 10.639C36.0177 10.639 35.638 10.7183 35.366 10.877C35.1053 11.0357 34.975 11.2453 34.975 11.506C34.975 11.7213 35.06 11.897 35.23 12.033C35.4113 12.169 35.6607 12.2823 35.978 12.373C36.2953 12.4523 36.6693 12.5373 37.1 12.628C37.5533 12.7187 37.9953 12.8263 38.426 12.951C38.8567 13.0643 39.242 13.2173 39.582 13.41C39.9333 13.6027 40.211 13.8577 40.415 14.175C40.619 14.4923 40.721 14.9003 40.721 15.399C40.721 15.9883 40.5623 16.4983 40.245 16.929C39.9277 17.3483 39.4687 17.6713 38.868 17.898C38.2673 18.1247 37.542 18.238 36.692 18.238ZM44.3593 18L41.3843 9.092H44.0873L45.9743 16.062H46.2463L48.1333 9.092H50.7343L47.7423 18H44.3593ZM56.0132 18.238C55.2765 18.238 54.6192 18.136 54.0412 17.932C53.4745 17.728 52.9928 17.4333 52.5962 17.048C52.1995 16.6627 51.8935 16.1867 51.6782 15.62C51.4742 15.0533 51.3722 14.413 51.3722 13.699C51.3722 12.9963 51.4685 12.3503 51.6612 11.761C51.8652 11.1603 52.1598 10.6447 52.5452 10.214C52.9305 9.772 53.4008 9.432 53.9562 9.194C54.5115 8.956 55.1405 8.837 55.8432 8.837C56.5232 8.837 57.1295 8.95033 57.6622 9.177C58.1948 9.39233 58.6368 9.721 58.9882 10.163C59.3508 10.605 59.6115 11.149 59.7702 11.795C59.9402 12.4297 60.0025 13.1607 59.9572 13.988L52.9532 14.056V12.713L58.5462 12.662L57.6792 13.342C57.7585 12.7413 57.7188 12.2483 57.5602 11.863C57.4015 11.4777 57.1692 11.1943 56.8632 11.013C56.5685 10.8317 56.2398 10.741 55.8772 10.741C55.4465 10.741 55.0668 10.8543 54.7382 11.081C54.4095 11.3077 54.1545 11.642 53.9732 12.084C53.7918 12.5147 53.7012 13.036 53.7012 13.648C53.7012 14.6113 53.9108 15.3197 54.3302 15.773C54.7608 16.2263 55.3218 16.453 56.0132 16.453C56.3305 16.453 56.5968 16.4133 56.8122 16.334C57.0388 16.2433 57.2202 16.13 57.3562 15.994C57.5035 15.858 57.6168 15.705 57.6962 15.535C57.7868 15.365 57.8605 15.195 57.9172 15.025L60.0422 15.484C59.9402 15.9033 59.7872 16.283 59.5832 16.623C59.3905 16.9517 59.1298 17.2407 58.8012 17.49C58.4725 17.728 58.0758 17.9093 57.6112 18.034C57.1578 18.17 56.6252 18.238 56.0132 18.238ZM61.7431 18V5.845H64.1571V18H61.7431ZM69.7563 18.204C68.759 18.204 68.0223 17.9433 67.5463 17.422C67.0817 16.8893 66.8493 16.045 66.8493 14.889V10.996H65.5573L65.5913 9.075H66.4923C66.8437 9.075 67.1043 9.024 67.2743 8.922C67.4443 8.82 67.5463 8.633 67.5803 8.361L67.8013 7.086H69.1953V9.075H71.4563V11.064H69.1953V14.787C69.1953 15.195 69.2917 15.4897 69.4843 15.671C69.677 15.8523 69.9717 15.943 70.3683 15.943C70.5837 15.943 70.7877 15.9203 70.9803 15.875C71.1843 15.8297 71.36 15.756 71.5073 15.654V17.932C71.156 18.0453 70.833 18.119 70.5383 18.153C70.2437 18.187 69.983 18.204 69.7563 18.204ZM77.2964 18.238C76.5597 18.238 75.9024 18.136 75.3244 17.932C74.7577 17.728 74.276 17.4333 73.8794 17.048C73.4827 16.6627 73.1767 16.1867 72.9614 15.62C72.7574 15.0533 72.6554 14.413 72.6554 13.699C72.6554 12.9963 72.7517 12.3503 72.9444 11.761C73.1484 11.1603 73.443 10.6447 73.8284 10.214C74.2137 9.772 74.684 9.432 75.2394 9.194C75.7947 8.956 76.4237 8.837 77.1264 8.837C77.8064 8.837 78.4127 8.95033 78.9454 9.177C79.478 9.39233 79.92 9.721 80.2714 10.163C80.634 10.605 80.8947 11.149 81.0534 11.795C81.2234 12.4297 81.2857 13.1607 81.2404 13.988L74.2364 14.056V12.713L79.8294 12.662L78.9624 13.342C79.0417 12.7413 79.002 12.2483 78.8434 11.863C78.6847 11.4777 78.4524 11.1943 78.1464 11.013C77.8517 10.8317 77.523 10.741 77.1604 10.741C76.7297 10.741 76.35 10.8543 76.0214 11.081C75.6927 11.3077 75.4377 11.642 75.2564 12.084C75.075 12.5147 74.9844 13.036 74.9844 13.648C74.9844 14.6113 75.194 15.3197 75.6134 15.773C76.044 16.2263 76.605 16.453 77.2964 16.453C77.6137 16.453 77.88 16.4133 78.0954 16.334C78.322 16.2433 78.5034 16.13 78.6394 15.994C78.7867 15.858 78.9 15.705 78.9794 15.535C79.07 15.365 79.1437 15.195 79.2004 15.025L81.3254 15.484C81.2234 15.9033 81.0704 16.283 80.8664 16.623C80.6737 16.9517 80.413 17.2407 80.0844 17.49C79.7557 17.728 79.359 17.9093 78.8944 18.034C78.441 18.17 77.9084 18.238 77.2964 18.238ZM89.0353 18.238C88.5366 18.238 88.0946 18.1417 87.7093 17.949C87.3239 17.745 87.0236 17.456 86.8083 17.082C86.5929 16.708 86.4853 16.2433 86.4853 15.688C86.4853 15.2007 86.5759 14.7927 86.7573 14.464C86.9499 14.1353 87.2276 13.869 87.5903 13.665C87.9529 13.461 88.4006 13.291 88.9333 13.155C89.4659 13.019 90.0723 12.9 90.7523 12.798C91.1149 12.7413 91.4096 12.6903 91.6363 12.645C91.8743 12.5883 92.0499 12.5033 92.1633 12.39C92.2766 12.2653 92.3333 12.0897 92.3333 11.863C92.3333 11.5457 92.2199 11.2737 91.9933 11.047C91.7666 10.8203 91.4096 10.707 90.9223 10.707C90.5936 10.707 90.2876 10.7637 90.0043 10.877C89.7323 10.9903 89.4943 11.1603 89.2903 11.387C89.0976 11.6137 88.9559 11.9027 88.8653 12.254L86.7063 11.591C86.8423 11.1263 87.0349 10.724 87.2843 10.384C87.5449 10.044 87.8566 9.76067 88.2193 9.534C88.5819 9.296 88.9956 9.12033 89.4603 9.007C89.9249 8.89367 90.4293 8.837 90.9733 8.837C91.8459 8.837 92.5543 8.97867 93.0983 9.262C93.6536 9.534 94.0673 9.96467 94.3393 10.554C94.6113 11.132 94.7473 11.88 94.7473 12.798V14.328C94.7473 14.7247 94.7529 15.127 94.7643 15.535C94.7869 15.943 94.8096 16.3567 94.8323 16.776C94.8663 17.184 94.9003 17.592 94.9343 18H92.7753C92.7299 17.7167 92.6846 17.3937 92.6393 17.031C92.6053 16.657 92.5769 16.283 92.5543 15.909H92.2483C92.0896 16.3397 91.8629 16.7307 91.5683 17.082C91.2736 17.4333 90.9109 17.7167 90.4803 17.932C90.0609 18.136 89.5793 18.238 89.0353 18.238ZM90.0723 16.47C90.2876 16.47 90.5029 16.4303 90.7183 16.351C90.9449 16.2717 91.1603 16.164 91.3643 16.028C91.5796 15.8807 91.7723 15.6993 91.9423 15.484C92.1236 15.2687 92.2709 15.025 92.3843 14.753L92.3503 13.325L92.7413 13.41C92.5373 13.5573 92.2993 13.6763 92.0273 13.767C91.7553 13.8463 91.4719 13.9087 91.1773 13.954C90.8939 13.9993 90.6106 14.0503 90.3273 14.107C90.0439 14.1637 89.7889 14.2373 89.5623 14.328C89.3469 14.4187 89.1713 14.5433 89.0353 14.702C88.9106 14.8493 88.8483 15.059 88.8483 15.331C88.8483 15.6823 88.9616 15.96 89.1883 16.164C89.4149 16.368 89.7096 16.47 90.0723 16.47ZM96.8886 20.856V13.614V9.075H98.9116L98.9286 11.557L99.2346 11.574C99.3366 10.9733 99.5123 10.469 99.7616 10.061C100.022 9.653 100.357 9.347 100.765 9.143C101.173 8.939 101.643 8.837 102.176 8.837C102.969 8.837 103.649 9.03533 104.216 9.432C104.782 9.81733 105.213 10.367 105.508 11.081C105.814 11.7837 105.967 12.6167 105.967 13.58C105.967 14.4753 105.831 15.2743 105.559 15.977C105.287 16.6683 104.879 17.218 104.335 17.626C103.802 18.034 103.133 18.238 102.329 18.238C101.762 18.238 101.28 18.1303 100.884 17.915C100.498 17.6997 100.175 17.3993 99.9146 17.014C99.6653 16.6173 99.4556 16.147 99.2856 15.603H98.9626C99.0306 15.909 99.0929 16.2207 99.1496 16.538C99.2063 16.8553 99.2516 17.167 99.2856 17.473C99.3196 17.7677 99.3366 18.0567 99.3366 18.34V20.856H96.8886ZM101.479 16.283C101.887 16.283 102.232 16.1697 102.516 15.943C102.799 15.7163 103.014 15.399 103.162 14.991C103.32 14.583 103.4 14.1183 103.4 13.597C103.4 13.0303 103.32 12.5487 103.162 12.152C103.003 11.744 102.776 11.4267 102.482 11.2C102.187 10.9733 101.836 10.86 101.428 10.86C101.065 10.86 100.753 10.9393 100.493 11.098C100.232 11.2567 100.011 11.4663 99.8296 11.727C99.6596 11.9877 99.5349 12.271 99.4556 12.577C99.3763 12.8717 99.3366 13.155 99.3366 13.427V13.75C99.3366 13.9653 99.3649 14.192 99.4216 14.43C99.4783 14.6567 99.5689 14.8833 99.6936 15.11C99.8183 15.3253 99.9656 15.5237 100.136 15.705C100.306 15.875 100.504 16.0167 100.731 16.13C100.957 16.232 101.207 16.283 101.479 16.283ZM107.729 20.856V13.614V9.075H109.752L109.769 11.557L110.075 11.574C110.177 10.9733 110.353 10.469 110.602 10.061C110.863 9.653 111.197 9.347 111.605 9.143C112.013 8.939 112.484 8.837 113.016 8.837C113.81 8.837 114.49 9.03533 115.056 9.432C115.623 9.81733 116.054 10.367 116.348 11.081C116.654 11.7837 116.807 12.6167 116.807 13.58C116.807 14.4753 116.671 15.2743 116.399 15.977C116.127 16.6683 115.719 17.218 115.175 17.626C114.643 18.034 113.974 18.238 113.169 18.238C112.603 18.238 112.121 18.1303 111.724 17.915C111.339 17.6997 111.016 17.3993 110.755 17.014C110.506 16.6173 110.296 16.147 110.126 15.603H109.803C109.871 15.909 109.934 16.2207 109.99 16.538C110.047 16.8553 110.092 17.167 110.126 17.473C110.16 17.7677 110.177 18.0567 110.177 18.34V20.856H107.729ZM112.319 16.283C112.727 16.283 113.073 16.1697 113.356 15.943C113.64 15.7163 113.855 15.399 114.002 14.991C114.161 14.583 114.24 14.1183 114.24 13.597C114.24 13.0303 114.161 12.5487 114.002 12.152C113.844 11.744 113.617 11.4267 113.322 11.2C113.028 10.9733 112.676 10.86 112.268 10.86C111.906 10.86 111.594 10.9393 111.333 11.098C111.073 11.2567 110.852 11.4663 110.67 11.727C110.5 11.9877 110.376 12.271 110.296 12.577C110.217 12.8717 110.177 13.155 110.177 13.427V13.75C110.177 13.9653 110.206 14.192 110.262 14.43C110.319 14.6567 110.41 14.8833 110.534 15.11C110.659 15.3253 110.806 15.5237 110.976 15.705C111.146 15.875 111.345 16.0167 111.571 16.13C111.798 16.232 112.047 16.283 112.319 16.283Z" fill="black"/>
</svg>
