<svg width="121" height="24" viewBox="0 0 121 24" fill="none" xmlns="http://www.w3.org/2000/svg">
<rect width="24" height="24" rx="6" fill="black"/>
<rect x="5.25" y="5.25" width="2.25" height="13.5" rx="1.125" fill="white"/>
<path d="M33.122 18V12.594V9.075H35.128L35.111 11.744H35.451C35.5983 11.098 35.808 10.5597 36.08 10.129C36.352 9.69833 36.692 9.37533 37.1 9.16C37.5193 8.94467 38.0123 8.837 38.579 8.837C39.6103 8.837 40.3923 9.19967 40.925 9.925C41.469 10.6503 41.741 11.7893 41.741 13.342V18H39.276V13.614C39.276 12.662 39.1343 11.9707 38.851 11.54C38.579 11.098 38.1767 10.877 37.644 10.877C37.1907 10.877 36.811 11.0187 36.505 11.302C36.199 11.5853 35.9667 11.9593 35.808 12.424C35.6607 12.8773 35.5813 13.3873 35.57 13.954V18H33.122ZM47.8926 18.238C46.9973 18.238 46.2096 18.0623 45.5296 17.711C44.8496 17.3483 44.3169 16.8213 43.9316 16.13C43.5463 15.4273 43.3536 14.5547 43.3536 13.512C43.3536 12.4693 43.5463 11.6023 43.9316 10.911C44.3283 10.2197 44.8666 9.704 45.5466 9.364C46.2379 9.01267 47.0199 8.837 47.8926 8.837C48.7879 8.837 49.5756 9.01267 50.2556 9.364C50.9469 9.71533 51.4853 10.2423 51.8706 10.945C52.2673 11.6363 52.4656 12.5033 52.4656 13.546C52.4656 14.6 52.2616 15.4783 51.8536 16.181C51.4569 16.8723 50.9129 17.388 50.2216 17.728C49.5416 18.068 48.7653 18.238 47.8926 18.238ZM47.9776 16.419C48.4196 16.419 48.7879 16.317 49.0826 16.113C49.3886 15.909 49.6153 15.603 49.7626 15.195C49.9213 14.7757 50.0006 14.2713 50.0006 13.682C50.0006 13.0587 49.9156 12.5317 49.7456 12.101C49.5869 11.659 49.3489 11.3247 49.0316 11.098C48.7143 10.86 48.3119 10.741 47.8246 10.741C47.4053 10.741 47.0426 10.843 46.7366 11.047C46.4306 11.2397 46.1983 11.5457 46.0396 11.965C45.8809 12.373 45.8016 12.8773 45.8016 13.478C45.8016 14.4413 45.9943 15.1723 46.3796 15.671C46.7649 16.1697 47.2976 16.419 47.9776 16.419ZM57.521 18.204C56.5237 18.204 55.787 17.9433 55.311 17.422C54.8463 16.8893 54.614 16.045 54.614 14.889V10.996H53.322L53.356 9.075H54.257C54.6083 9.075 54.869 9.024 55.039 8.922C55.209 8.82 55.311 8.633 55.345 8.361L55.566 7.086H56.96V9.075H59.221V11.064H56.96V14.787C56.96 15.195 57.0563 15.4897 57.249 15.671C57.4417 15.8523 57.7363 15.943 58.133 15.943C58.3483 15.943 58.5523 15.9203 58.745 15.875C58.949 15.8297 59.1247 15.756 59.272 15.654V17.932C58.9207 18.0453 58.5977 18.119 58.303 18.153C58.0083 18.187 57.7477 18.204 57.521 18.204ZM63.9888 18.238C62.9462 18.238 62.1585 17.8867 61.6258 17.184C61.1045 16.47 60.8438 15.3877 60.8438 13.937V9.075H63.2918V13.631C63.2918 14.5037 63.4222 15.1553 63.6828 15.586C63.9435 16.0053 64.3402 16.215 64.8728 16.215C65.1902 16.215 65.4678 16.1357 65.7058 15.977C65.9438 15.8183 66.1478 15.5973 66.3178 15.314C66.4878 15.0307 66.6125 14.6963 66.6918 14.311C66.7825 13.9257 66.8335 13.512 66.8448 13.07V9.075H69.2928V14.362V18H67.3208L67.3038 15.212H66.9978C66.8278 15.9147 66.6125 16.4927 66.3518 16.946C66.1025 17.388 65.7795 17.7167 65.3828 17.932C64.9975 18.136 64.5328 18.238 63.9888 18.238ZM71.538 18V5.845H73.952V18H71.538ZM79.5363 21.094C79.0829 21.094 78.6183 21.0487 78.1423 20.958C77.6776 20.8787 77.2356 20.7483 76.8163 20.567C76.4083 20.397 76.0569 20.176 75.7623 19.904L76.4593 17.813C76.8219 18.187 77.2753 18.4647 77.8193 18.646C78.3633 18.8387 78.9016 18.935 79.4343 18.935C80.0349 18.935 80.5336 18.8103 80.9303 18.561C81.3383 18.323 81.6443 17.9547 81.8483 17.456C82.0636 16.946 82.1883 16.3113 82.2223 15.552L82.3243 14.005H81.9503C81.8369 14.753 81.6499 15.365 81.3893 15.841C81.1399 16.317 80.8169 16.6683 80.4203 16.895C80.0349 17.1103 79.5759 17.218 79.0433 17.218C78.3973 17.218 77.8533 17.0537 77.4113 16.725C76.9693 16.3963 76.6349 15.9033 76.4083 15.246C76.1929 14.5887 76.0853 13.7783 76.0853 12.815V9.075H78.5333V12.22C78.5333 13.274 78.6523 14.0333 78.8903 14.498C79.1283 14.9627 79.4909 15.195 79.9783 15.195C80.2389 15.195 80.4769 15.127 80.6923 14.991C80.9076 14.8437 81.0889 14.634 81.2363 14.362C81.3949 14.09 81.5139 13.7613 81.5933 13.376C81.6839 12.9793 81.7293 12.5317 81.7293 12.033V9.075H84.1773V15.637C84.1773 16.351 84.1149 17.0027 83.9903 17.592C83.8656 18.17 83.6786 18.6743 83.4293 19.105C83.1913 19.547 82.8853 19.9153 82.5113 20.21C82.1373 20.5047 81.7009 20.7257 81.2023 20.873C80.7149 21.0203 80.1596 21.094 79.5363 21.094ZM89.983 18.238C89.3823 18.238 88.8383 18.1813 88.351 18.068C87.8637 17.9547 87.4443 17.7903 87.093 17.575C86.7417 17.3597 86.4583 17.1047 86.243 16.81C86.0277 16.504 85.886 16.164 85.818 15.79L87.688 15.025C87.7333 15.2743 87.858 15.5067 88.062 15.722C88.266 15.9373 88.538 16.113 88.878 16.249C89.2293 16.3737 89.6487 16.436 90.136 16.436C90.6573 16.436 91.0597 16.3623 91.343 16.215C91.6263 16.0563 91.768 15.8353 91.768 15.552C91.768 15.3367 91.6887 15.1667 91.53 15.042C91.3713 14.9173 91.139 14.8097 90.833 14.719C90.527 14.6283 90.1587 14.5433 89.728 14.464C89.3087 14.362 88.878 14.2543 88.436 14.141C88.0053 14.0277 87.603 13.869 87.229 13.665C86.8663 13.461 86.566 13.1947 86.328 12.866C86.1013 12.526 85.988 12.0953 85.988 11.574C85.988 11.03 86.1353 10.554 86.43 10.146C86.7247 9.738 87.1553 9.42067 87.722 9.194C88.2887 8.956 88.98 8.837 89.796 8.837C90.5327 8.837 91.1787 8.939 91.734 9.143C92.2893 9.33567 92.7427 9.619 93.094 9.993C93.4567 10.3557 93.7003 10.792 93.825 11.302L91.836 11.965C91.7907 11.693 91.6773 11.455 91.496 11.251C91.326 11.047 91.0937 10.894 90.799 10.792C90.5157 10.69 90.1813 10.639 89.796 10.639C89.3087 10.639 88.929 10.7183 88.657 10.877C88.3963 11.0357 88.266 11.2453 88.266 11.506C88.266 11.7213 88.351 11.897 88.521 12.033C88.7023 12.169 88.9517 12.2823 89.269 12.373C89.5863 12.4523 89.9603 12.5373 90.391 12.628C90.8443 12.7187 91.2863 12.8263 91.717 12.951C92.1477 13.0643 92.533 13.2173 92.873 13.41C93.2243 13.6027 93.502 13.8577 93.706 14.175C93.91 14.4923 94.012 14.9003 94.012 15.399C94.012 15.9883 93.8533 16.4983 93.536 16.929C93.2187 17.3483 92.7597 17.6713 92.159 17.898C91.5583 18.1247 90.833 18.238 89.983 18.238ZM98.9751 18.204C97.9778 18.204 97.2411 17.9433 96.7651 17.422C96.3004 16.8893 96.0681 16.045 96.0681 14.889V10.996H94.7761L94.8101 9.075H95.7111C96.0624 9.075 96.3231 9.024 96.4931 8.922C96.6631 8.82 96.7651 8.633 96.7991 8.361L97.0201 7.086H98.4141V9.075H100.675V11.064H98.4141V14.787C98.4141 15.195 98.5104 15.4897 98.7031 15.671C98.8958 15.8523 99.1904 15.943 99.5871 15.943C99.8024 15.943 100.006 15.9203 100.199 15.875C100.403 15.8297 100.579 15.756 100.726 15.654V17.932C100.375 18.0453 100.052 18.119 99.7571 18.153C99.4624 18.187 99.2018 18.204 98.9751 18.204ZM103.649 18.221C103.116 18.221 102.714 18.1077 102.442 17.881C102.181 17.6543 102.051 17.303 102.051 16.827C102.051 16.3397 102.181 15.9827 102.442 15.756C102.714 15.5293 103.116 15.416 103.649 15.416C104.193 15.416 104.595 15.5293 104.856 15.756C105.128 15.9827 105.264 16.3397 105.264 16.827C105.264 17.7563 104.725 18.221 103.649 18.221ZM109.04 18.238C108.541 18.238 108.099 18.1417 107.714 17.949C107.329 17.745 107.028 17.456 106.813 17.082C106.598 16.708 106.49 16.2433 106.49 15.688C106.49 15.2007 106.581 14.7927 106.762 14.464C106.955 14.1353 107.232 13.869 107.595 13.665C107.958 13.461 108.405 13.291 108.938 13.155C109.471 13.019 110.077 12.9 110.757 12.798C111.12 12.7413 111.414 12.6903 111.641 12.645C111.879 12.5883 112.055 12.5033 112.168 12.39C112.281 12.2653 112.338 12.0897 112.338 11.863C112.338 11.5457 112.225 11.2737 111.998 11.047C111.771 10.8203 111.414 10.707 110.927 10.707C110.598 10.707 110.292 10.7637 110.009 10.877C109.737 10.9903 109.499 11.1603 109.295 11.387C109.102 11.6137 108.961 11.9027 108.87 12.254L106.711 11.591C106.847 11.1263 107.04 10.724 107.289 10.384C107.55 10.044 107.861 9.76067 108.224 9.534C108.587 9.296 109 9.12033 109.465 9.007C109.93 8.89367 110.434 8.837 110.978 8.837C111.851 8.837 112.559 8.97867 113.103 9.262C113.658 9.534 114.072 9.96467 114.344 10.554C114.616 11.132 114.752 11.88 114.752 12.798V14.328C114.752 14.7247 114.758 15.127 114.769 15.535C114.792 15.943 114.814 16.3567 114.837 16.776C114.871 17.184 114.905 17.592 114.939 18H112.78C112.735 17.7167 112.689 17.3937 112.644 17.031C112.61 16.657 112.582 16.283 112.559 15.909H112.253C112.094 16.3397 111.868 16.7307 111.573 17.082C111.278 17.4333 110.916 17.7167 110.485 17.932C110.066 18.136 109.584 18.238 109.04 18.238ZM110.077 16.47C110.292 16.47 110.508 16.4303 110.723 16.351C110.95 16.2717 111.165 16.164 111.369 16.028C111.584 15.8807 111.777 15.6993 111.947 15.484C112.128 15.2687 112.276 15.025 112.389 14.753L112.355 13.325L112.746 13.41C112.542 13.5573 112.304 13.6763 112.032 13.767C111.76 13.8463 111.477 13.9087 111.182 13.954C110.899 13.9993 110.615 14.0503 110.332 14.107C110.049 14.1637 109.794 14.2373 109.567 14.328C109.352 14.4187 109.176 14.5433 109.04 14.702C108.915 14.8493 108.853 15.059 108.853 15.331C108.853 15.6823 108.966 15.96 109.193 16.164C109.42 16.368 109.714 16.47 110.077 16.47ZM116.893 18V9.075H119.341V18H116.893ZM118.134 7.732C117.658 7.732 117.29 7.63567 117.029 7.443C116.78 7.239 116.655 6.94433 116.655 6.559C116.655 6.16233 116.78 5.862 117.029 5.658C117.29 5.454 117.658 5.352 118.134 5.352C118.622 5.352 118.99 5.454 119.239 5.658C119.5 5.862 119.63 6.16233 119.63 6.559C119.63 6.933 119.5 7.222 119.239 7.426C118.99 7.63 118.622 7.732 118.134 7.732Z" fill="black"/>
</svg>
