<svg width="24" height="24" viewBox="0 0 24 24" fill="none" xmlns="http://www.w3.org/2000/svg">
<path fill-rule="evenodd" clip-rule="evenodd" d="M0 6C0 2.68629 2.68629 0 6 0H18C21.3137 0 24 2.68629 24 6V18C24 21.3137 21.3137 24 18 24H6C2.68629 24 0 21.3137 0 18V6ZM5.25 6.375C5.25 5.75368 5.75368 5.25 6.375 5.25C6.99632 5.25 7.5 5.75368 7.5 6.375V17.625C7.5 18.2463 6.99632 18.75 6.375 18.75C5.75368 18.75 5.25 18.2463 5.25 17.625V6.375ZM12 18.75C12.8284 18.75 13.5 18.0784 13.5 17.25C13.5 16.4216 12.8284 15.75 12 15.75C11.1716 15.75 10.5 16.4216 10.5 17.25C10.5 18.0784 11.1716 18.75 12 18.75Z" fill="black"/>
</svg>
